<svg xmlns="http://www.w3.org/2000/svg" width="44" height="31.958" viewBox="0 0 44 31.958">
  <path id="logo" d="M22,.5C9.845.5,0,7.836,0,16.884c0,7.24,6.3,13.38,15.042,15.545,1.1.154,1.5-.353,1.5-.788,0-.389-.018-1.42-.028-2.786-6.12.988-7.41-2.2-7.41-2.2a5,5,0,0,0-2.448-2.4c-1.993-1.016.154-.995.154-.995a4.7,4.7,0,0,1,3.37,1.688c1.962,2.505,5.15,1.781,6.407,1.363a3.264,3.264,0,0,1,1.393-2.191c-4.886-.41-10.021-1.819-10.021-8.1a5.552,5.552,0,0,1,2.264-4.4A4.468,4.468,0,0,1,10.421,7.3s1.843-.439,6.05,1.68a27.627,27.627,0,0,1,11,0c4.18-2.119,6.023-1.68,6.023-1.68a4.585,4.585,0,0,1,.22,4.336,5.569,5.569,0,0,1,2.255,4.4c0,6.294-5.143,7.679-10.038,8.082a3.467,3.467,0,0,1,1.485,3.032c0,2.193-.028,3.954-.028,4.487,0,.429.385.942,1.513.778,8.8-2.151,15.1-8.3,15.1-15.524C44,7.836,34.149.5,22,.5Z" transform="translate(0 -0.5)" fill="#fafafa"/>
</svg>
