<svg xmlns="http://www.w3.org/2000/svg" width="33.69" height="27.373" viewBox="0 0 33.69 27.373">
  <g id="twitter" transform="translate(0 -48)">
    <g id="Group_1" data-name="Group 1" transform="translate(0 48)">
      <path id="Path_1" data-name="Path 1" d="M33.69,51.241a14.4,14.4,0,0,1-3.98,1.091,6.868,6.868,0,0,0,3.038-3.817,13.8,13.8,0,0,1-4.38,1.672,6.906,6.906,0,0,0-11.947,4.723,7.112,7.112,0,0,0,.16,1.575A19.549,19.549,0,0,1,2.346,49.259,6.909,6.909,0,0,0,4.468,58.49a6.821,6.821,0,0,1-3.121-.851v.076A6.938,6.938,0,0,0,6.881,64.5a6.893,6.893,0,0,1-1.811.227,6.107,6.107,0,0,1-1.308-.118,6.972,6.972,0,0,0,6.454,4.811,13.878,13.878,0,0,1-8.564,2.946A12.936,12.936,0,0,1,0,72.273a19.444,19.444,0,0,0,10.6,3.1c12.709,0,19.658-10.528,19.658-19.654,0-.305-.011-.6-.025-.893A13.778,13.778,0,0,0,33.69,51.241Z" transform="translate(0 -48)" fill="#fff"/>
    </g>
  </g>
</svg>
